Coordinates
version=1
nRows=16
nColumns=40
inDegrees=yes

Units are S.I. units (second, meters, Newtons, ...)
Angles are in degrees.

endheader
time	pelvis_tilt	pelvis_list	pelvis_rotation	pelvis_tx	pelvis_ty	pelvis_tz	hip_flexion_r	hip_adduction_r	hip_rotation_r	knee_angle_r	knee_angle_r_beta	ankle_angle_r	subtalar_angle_r	mtp_angle_r	hip_flexion_l	hip_adduction_l	hip_rotation_l	knee_angle_l	knee_angle_l_beta	ankle_angle_l	subtalar_angle_l	mtp_angle_l	lumbar_extension	lumbar_bending	lumbar_rotation	arm_flex_r	arm_add_r	arm_rot_r	elbow_flex_r	pro_sup_r	wrist_flex_r	wrist_dev_r	arm_flex_l	arm_add_l	arm_rot_l	elbow_flex_l	pro_sup_l	wrist_flex_l	wrist_dev_l
      0.00000000	      0.03677038	     10.66116396	    -81.69493312	      0.59510856	      0.98234664	     -0.17859857	     11.73999765	     -6.48226788	    -13.79706404	      9.52110075	      0.16617456	      4.32997433	      0.00000000	      0.00000000	     15.66697867	     -3.57544399	     -1.99091099	     10.86904233	      0.18970058	      2.45278440	      0.00000000	      0.00000000	      3.59426124	     -3.31373120	     -4.82978837	    -69.00913958	    -62.29717902	    -33.17586679	    112.47207949	     46.96962964	      0.00000000	      0.00000000	     22.70978514	    -89.82986156	     51.68283829	    108.81935779	     46.11043677	      0.00000000	      0.00000000
      0.01000000	     -0.01193696	     10.75641940	    -81.64122982	      0.59516662	      0.98227225	     -0.17987428	     11.99342398	     -6.50168159	    -13.76558029	      9.54439172	      0.16658106	      4.19035934	      0.00000000	      0.00000000	     16.04868137	     -3.60000407	     -1.76564326	     11.22207394	      0.19586214	      2.26799332	      0.00000000	      0.00000000	      3.56900661	     -3.29970520	     -4.84592608	    -68.49417095	    -62.17837384	    -33.03061923	    112.15874759	     46.93729226	      0.00000000	      0.00000000	     22.51741591	    -89.58491815	     51.05776256	    108.50724968	     46.09409602	      0.00000000	      0.00000000
      0.02000000	      0.53352759	     10.12820556	    -82.35630440	      0.59475728	      0.98301100	     -0.17912102	     11.17592761	     -6.81700187	    -12.32814504	      9.30867024	      0.16246694	      4.10901110	      0.00000000	      0.00000000	     14.88090835	     -3.25743557	     -2.72248035	     10.67993852	      0.18640009	      2.15438781	      0.00000000	      0.00000000	      2.93041012	     -3.66339498	     -4.43724050	    -69.94937030	    -63.36116427	    -33.47438487	    112.63487255	     47.00183616	      0.00000000	      0.00000000	     20.01755329	    -90.10525436	     49.22766950	    109.17209250	     46.21086743	      0.00000000	      0.00000000
      0.03000000	      0.26880297	     11.18159794	    -81.93445047	      0.59492946	      0.98123104	     -0.17946246	     12.47724533	     -6.81839612	    -13.29327719	      9.66248994	      0.16864226	      4.34513042	      0.00000000	      0.00000000	     16.31863372	     -3.30820443	     -2.48957062	     11.06434231	      0.19310920	      2.56705932	      0.00000000	      0.00000000	      4.16966948	     -3.67650187	     -4.75242995	    -68.58459692	    -62.83695878	    -32.68224978	    112.26988021	     46.89696422	      0.00000000	      0.00000000	     18.86599004	    -89.96474998	     47.81562909	    108.93792940	     46.15806897	      0.00000000	      0.00000000
      0.04000000	      0.16377707	     11.25708123	    -81.84122278	      0.59482151	      0.98114406	     -0.18003518	     12.64001626	     -6.77368534	    -13.29587915	      9.74642483	      0.17010720	      4.20872852	      0.00000000	      0.00000000	     16.63082363	     -3.45269100	     -2.17703052	     11.44709552	      0.19978951	      2.36248653	      0.00000000	      0.00000000	      4.23155750	     -3.63218498	     -4.81891767	    -68.03994021	    -62.61596805	    -32.47267062	    111.92005033	     46.86202748	      0.00000000	      0.00000000	     18.68908490	    -89.63099516	     47.25935384	    108.62105307	     46.13839464	      0.00000000	      0.00000000
      0.05000000	     -0.34965358	     11.73513561	    -80.79554678	      0.59618804	      0.98069483	     -0.18368634	     13.83099536	     -6.70628180	    -13.77948694	     11.06400778	      0.19310336	      3.75891998	      0.00000000	      0.00000000	     18.59177493	     -3.60069985	     -1.17565406	     13.28144972	      0.23180503	      1.69713315	      0.00000000	      0.00000000	      4.40871231	     -3.22099407	     -5.59061548	    -65.59978418	    -61.81199699	    -31.70403577	    110.67325601	     46.71835192	      0.00000000	      0.00000000	     18.49087136	    -88.46746103	     45.27418338	    107.35845793	     46.05307993	      0.00000000	      0.00000000
      0.06000000	     -0.20538611	     11.82755028	    -81.62058356	      0.59509031	      0.97987138	     -0.17993598	     13.31433850	     -6.53024777	    -13.83393960	      9.88422360	      0.17251225	      4.52998865	      0.00000000	      0.00000000	     17.36341877	     -3.65549649	     -2.18617077	     11.40926181	      0.19912918	      3.04545973	      0.00000000	      0.00000000	      5.02176558	     -3.40096678	     -5.17848467	    -67.68633558	    -63.37744825	    -31.73900506	    111.89671360	     46.74120717	      0.00000000	      0.00000000	     16.40680683	    -90.07720886	     45.99599901	    109.41471174	     46.10091067	      0.00000000	      0.00000000
      0.07000000	     -0.13167405	     12.35423560	    -81.64132650	      0.59500540	      0.97912835	     -0.17905495	     13.80315192	     -6.63500297	    -13.44500169	      9.91621479	      0.17307060	      4.46573681	      0.00000000	      0.00000000	     17.78707279	     -3.51003870	     -2.10146034	     11.40036578	      0.19897392	      3.00617411	      0.00000000	      0.00000000	      5.90592192	     -3.63918956	     -5.22994137	    -67.55770551	    -63.48741140	    -31.30315442	    111.56671142	     46.66898329	      0.00000000	      0.00000000	     15.25111764	    -90.06342124	     44.89024907	    109.41532379	     46.07456942	      0.00000000	      0.00000000
      0.08000000	      0.70326851	      9.67670770	    -82.63223830	      0.59442118	      0.98361306	     -0.17945811	     10.79429036	     -6.90436183	    -11.94292056	      9.40526688	      0.16415287	      4.20008852	      0.00000000	      0.00000000	     14.31645833	     -3.18092337	     -3.10253778	     10.62569236	      0.18545332	      2.14613778	      0.00000000	      0.00000000	      2.43817342	     -3.80364763	     -4.33473564	    -69.18292190	    -64.18073561	    -32.89602026	    112.05122080	     46.86089139	      0.00000000	      0.00000000	     14.25813117	    -90.02631829	     42.97419416	    109.44101858	     46.23676509	      0.00000000	      0.00000000
      0.09000000	      0.15091644	     10.45107109	    -82.20448335	      0.59415000	      0.98238857	     -0.17906006	     11.76911490	     -6.49141808	    -13.13439557	      9.76382857	      0.17041096	      4.49344090	      0.00000000	      0.00000000	     15.48470474	     -3.65533602	     -2.82339804	     11.09292080	      0.19360799	      2.80461035	      0.00000000	      0.00000000	      3.51496275	     -3.46631435	     -4.65846047	    -67.57911439	    -63.54300451	    -31.92517912	    111.77639580	     46.75354473	      0.00000000	      0.00000000	     12.86027522	    -89.86143613	     41.55354071	    109.27936447	     46.17428583	      0.00000000	      0.00000000
      0.10000000	      0.22803308	     11.11514100	    -81.98247002	      0.59480696	      0.98116486	     -0.17920993	     12.47849509	     -6.78172632	    -13.27127768	      9.85900667	      0.17207213	      4.49255940	      0.00000000	      0.00000000	     16.30128896	     -3.35802108	     -2.29367777	     11.25429322	      0.19642447	      2.89827764	      0.00000000	      0.00000000	      4.33988405	     -3.68202341	     -4.93380853	    -67.47119349	    -63.75442244	    -31.49559045	    111.58319345	     46.69721552	      0.00000000	      0.00000000	     11.77719368	    -89.96085904	     40.89780462	    109.42088051	     46.14973617	      0.00000000	      0.00000000
      0.11000000	     -0.63161012	     12.03056703	    -80.59694695	      0.59577719	      0.98013224	     -0.18486902	     14.47691977	     -6.53431949	    -14.47331947	     11.57693665	      0.20205566	      3.93124937	      0.00000000	      0.00000000	     19.49812380	     -3.77732561	     -0.31481682	     14.21387004	      0.24807883	      1.80998082	      0.00000000	      0.00000000	      4.93577006	     -3.12405472	     -6.00282309	    -62.92183769	    -62.53824335	    -30.19586997	    109.66625921	     46.47809009	      0.00000000	      0.00000000	     11.58363438	    -88.28241958	     37.47349376	    107.19093895	     46.00444388	      0.00000000	      0.00000000
      0.12000000	      0.70220792	      9.70081027	    -82.94814431	      0.59354934	      0.98360468	     -0.17928497	     10.91813673	     -6.80829074	    -11.66440228	      9.47174531	      0.16531314	      4.23392179	      0.00000000	      0.00000000	     14.28216928	     -3.30132811	     -3.54895162	     10.58172750	      0.18468599	      2.35490273	      0.00000000	      0.00000000	      2.51174884	     -3.70118128	     -3.86958276	    -68.63349246	    -63.58014078	    -33.15850408	    112.07356380	     46.83711803	      0.00000000	      0.00000000	      9.46843022	    -89.52503402	     37.56876931	    109.05614199	     46.25405500	      0.00000000	      0.00000000
      0.13000000	      0.49408764	      9.81722266	    -82.60640852	      0.59386224	      0.98347784	     -0.17911803	     10.99249260	     -6.66555635	    -12.23839625	      9.46483324	      0.16519250	      4.21620592	      0.00000000	      0.00000000	     14.56679126	     -3.42533983	     -3.07670389	     10.79396148	      0.18839017	      2.48164558	      0.00000000	      0.00000000	      2.71236421	     -3.61342233	     -4.18481109	    -68.06158959	    -63.41360729	    -32.83456096	    111.65310682	     46.80702092	      0.00000000	      0.00000000	      9.03345348	    -89.46269774	     37.01517694	    109.03869383	     46.24716741	      0.00000000	      0.00000000
      0.14000000	      0.08702885	     10.90498937	    -82.07535866	      0.59458345	      0.98161288	     -0.17910152	     12.15758990	     -6.53277703	    -13.23681461	      9.56468826	      0.16693530	      4.35801406	      0.00000000	      0.00000000	     16.03727732	     -3.58221654	     -2.55617916	     11.12306773	      0.19413415	      2.87052644	      0.00000000	      0.00000000	      4.13851390	     -3.45726347	     -4.70750007	    -66.87458472	    -63.32569822	    -31.96505198	    111.18567907	     46.69910814	      0.00000000	      0.00000000	      7.96021245	    -89.31307367	     36.14986767	    108.96474296	     46.18122236	      0.00000000	      0.00000000
      0.15000000	      0.04911859	     10.96119002	    -82.11925805	      0.59412347	      0.98163563	     -0.17996087	     12.36308076	     -6.47652874	    -13.15074109	      9.65486109	      0.16850911	      4.19046500	      0.00000000	      0.00000000	     16.32207075	     -3.66898596	     -2.23456358	     11.49354701	      0.20060024	      2.61364045	      0.00000000	      0.00000000	      4.09844123	     -3.40773746	     -4.65971216	    -66.39712122	    -63.22836983	    -31.84144621	    110.83405865	     46.67355931	      0.00000000	      0.00000000	      7.93362601	    -89.11951600	     35.69538608	    108.65165910	     46.16387205	      0.00000000	      0.00000000
